{
	"asset":{
		"generator":"Khronos glTF Blender I/O v3.6.27",
		"version":"2.0"
	},
	"extensionsUsed":[
		"KHR_materials_transmission",
		"KHR_materials_emissive_strength",
		"KHR_materials_ior"
	],
	"scene":0,
	"scenes":[
		{
			"name":"Scene",
			"nodes":[
				0,
				5
			]
		}
	],
	"nodes":[
		{
			"mesh":0,
			"name":"GameboyPlane",
			"rotation":[
				0,
				0.9999492764472961,
				0,
				0.010079258121550083
			],
			"scale":[
				1.014660358428955,
				1.0146602392196655,
				1.014660358428955
			],
			"translation":[
				0.0005123019218444824,
				0.9979676604270935,
				0.03597831726074219
			]
		},
		{
			"mesh":1,
			"name":"CenterButton",
			"scale":[
				0.9522314667701721,
				0.9522314667701721,
				0.9522314667701721
			],
			"translation":[
				0,
				0.003033159766346216,
				0
			]
		},
		{
			"mesh":2,
			"name":"LowerHalf",
			"scale":[
				0.9522314667701721,
				0.9522314667701721,
				0.9522314667701721
			]
		},
		{
			"mesh":3,
			"name":"Sphere.002",
			"scale":[
				0.9522314667701721,
				0.9522314667701721,
				0.9522314667701721
			],
			"translation":[
				0,
				0.003033159766346216,
				0
			]
		},
		{
			"mesh":4,
			"name":"UpperHalf",
			"scale":[
				0.9522314667701721,
				0.9522314667701721,
				0.9522314667701721
			]
		},
		{
			"children":[
				1,
				2,
				3,
				4
			],
			"mesh":5,
			"name":"Pokeball",
			"rotation":[
				0.7071068286895752,
				0,
				0,
				0.7071068286895752
			],
			"translation":[
				0,
				0.9920641183853149,
				0
			]
		}
	],
	"animations":[
		{
			"channels":[
				{
					"sampler":0,
					"target":{
						"node":4,
						"path":"translation"
					}
				},
				{
					"sampler":1,
					"target":{
						"node":4,
						"path":"rotation"
					}
				},
				{
					"sampler":2,
					"target":{
						"node":4,
						"path":"scale"
					}
				}
			],
			"name":"Sphere.004Action.001",
			"samplers":[
				{
					"input":28,
					"interpolation":"LINEAR",
					"output":29
				},
				{
					"input":28,
					"interpolation":"LINEAR",
					"output":30
				},
				{
					"input":31,
					"interpolation":"STEP",
					"output":32
				}
			]
		}
	],
	"materials":[
		{
			"doubleSided":true,
			"name":"Material.001",
			"normalTexture":{
				"index":0,
				"scale":0.6000000238418579
			},
			"pbrMetallicRoughness":{
				"baseColorTexture":{
					"index":1
				},
				"metallicFactor":0,
				"roughnessFactor":0.5
			}
		},
		{
			"doubleSided":true,
			"name":"Metal",
			"pbrMetallicRoughness":{
				"baseColorFactor":[
					1,
					0.9786862134933472,
					0.9163454174995422,
					1
				],
				"roughnessFactor":0.5
			}
		},
		{
			"doubleSided":true,
			"name":"Black",
			"pbrMetallicRoughness":{
				"baseColorFactor":[
					0.003642119700089097,
					0.003642119700089097,
					0.003642119700089097,
					1
				],
				"metallicFactor":0,
				"roughnessFactor":0.10000000149011612
			}
		},
		{
			"doubleSided":true,
			"emissiveFactor":[
				0.006650626805603598,
				1,
				0.014523022012005431
			],
			"extensions":{
				"KHR_materials_transmission":{
					"transmissionFactor":0.5039370059967041
				},
				"KHR_materials_emissive_strength":{
					"emissiveStrength":1.8227394819259644
				},
				"KHR_materials_ior":{
					"ior":1.4500000476837158
				}
			},
			"name":"Light",
			"pbrMetallicRoughness":{
				"baseColorFactor":[
					0.800000011920929,
					0.800000011920929,
					0.800000011920929,
					1
				],
				"metallicFactor":0,
				"roughnessFactor":0.5
			}
		},
		{
			"doubleSided":true,
			"name":"Black",
			"pbrMetallicRoughness":{
				"baseColorFactor":[
					0.003642119700089097,
					0.003642119700089097,
					0.003642119700089097,
					1
				],
				"metallicFactor":0,
				"roughnessFactor":0.10000000149011612
			}
		},
		{
			"doubleSided":true,
			"name":"Red",
			"pbrMetallicRoughness":{
				"baseColorFactor":[
					0.8000000715255737,
					0.007877988740801811,
					0,
					1
				],
				"metallicFactor":0,
				"roughnessFactor":0.30000001192092896
			}
		},
		{
			"doubleSided":true,
			"name":"Blue",
			"pbrMetallicRoughness":{
				"baseColorFactor":[
					0.800000011920929,
					0.800000011920929,
					0.800000011920929,
					1
				],
				"metallicFactor":0,
				"roughnessFactor":0.10000000149011612
			}
		}
	],
	"meshes":[
		{
			"name":"Plane.001",
			"primitives":[
				{
					"attributes":{
						"POSITION":0,
						"NORMAL":1,
						"TEXCOORD_0":2
					},
					"indices":3,
					"material":0
				}
			]
		},
		{
			"name":"Mesh",
			"primitives":[
				{
					"attributes":{
						"POSITION":4,
						"NORMAL":5,
						"TEXCOORD_0":6
					},
					"indices":7,
					"material":1
				}
			]
		},
		{
			"name":"Sphere.005",
			"primitives":[
				{
					"attributes":{
						"POSITION":8,
						"NORMAL":9,
						"TEXCOORD_0":10
					},
					"indices":11,
					"material":2
				}
			]
		},
		{
			"name":"Mesh",
			"primitives":[
				{
					"attributes":{
						"POSITION":12,
						"NORMAL":13,
						"TEXCOORD_0":14
					},
					"indices":15,
					"material":3
				}
			]
		},
		{
			"name":"Sphere.002",
			"primitives":[
				{
					"attributes":{
						"POSITION":16,
						"NORMAL":17,
						"TEXCOORD_0":18
					},
					"indices":19,
					"material":4
				},
				{
					"attributes":{
						"POSITION":20,
						"NORMAL":21,
						"TEXCOORD_0":22
					},
					"indices":23,
					"material":5
				}
			]
		},
		{
			"name":"Mesh",
			"primitives":[
				{
					"attributes":{
						"POSITION":24,
						"NORMAL":25,
						"TEXCOORD_0":26
					},
					"indices":27,
					"material":6
				}
			]
		}
	],
	"textures":[
		{
			"sampler":0,
			"source":0
		},
		{
			"sampler":1,
			"source":1
		}
	],
	"images":[
		{
			"mimeType":"image/png",
			"name":"pokemon_heightmap",
			"uri":"pokemon_heightmap.png"
		},
		{
			"mimeType":"image/jpeg",
			"name":"pokemon_map",
			"uri":"pokemon_map.jpg"
		}
	],
	"accessors":[
		{
			"bufferView":0,
			"componentType":5126,
			"count":8450,
			"max":[
				0.9166667461395264,
				0,
				0.9166667461395264
			],
			"min":[
				-0.9166667461395264,
				-0.035999998450279236,
				-0.9166667461395264
			],
			"type":"VEC3"
		},
		{
			"bufferView":1,
			"componentType":5126,
			"count":8450,
			"type":"VEC3"
		},
		{
			"bufferView":2,
			"componentType":5126,
			"count":8450,
			"type":"VEC2"
		},
		{
			"bufferView":3,
			"componentType":5123,
			"count":50688,
			"type":"SCALAR"
		},
		{
			"bufferView":4,
			"componentType":5126,
			"count":1888,
			"max":[
				0.17136520147323608,
				-0.9807848334312439,
				0.17136512696743011
			],
			"min":[
				-0.17136508226394653,
				-1.0608488321304321,
				-0.17136505246162415
			],
			"type":"VEC3"
		},
		{
			"bufferView":5,
			"componentType":5126,
			"count":1888,
			"type":"VEC3"
		},
		{
			"bufferView":6,
			"componentType":5126,
			"count":1888,
			"type":"VEC2"
		},
		{
			"bufferView":7,
			"componentType":5123,
			"count":7680,
			"type":"SCALAR"
		},
		{
			"bufferView":8,
			"componentType":5126,
			"count":2172,
			"max":[
				0.9976646900177002,
				0.9976801872253418,
				0.9999993443489075
			],
			"min":[
				-0.9976640343666077,
				-0.9461486339569092,
				-0.002557477680966258
			],
			"type":"VEC3"
		},
		{
			"bufferView":9,
			"componentType":5126,
			"count":2172,
			"type":"VEC3"
		},
		{
			"bufferView":10,
			"componentType":5126,
			"count":2172,
			"type":"VEC2"
		},
		{
			"bufferView":11,
			"componentType":5123,
			"count":12420,
			"type":"SCALAR"
		},
		{
			"bufferView":12,
			"componentType":5126,
			"count":3001,
			"max":[
				0.2886556088924408,
				-0.9523323774337769,
				0.28865548968315125
			],
			"min":[
				-0.28865543007850647,
				-1.0041590929031372,
				-0.28865543007850647
			],
			"type":"VEC3"
		},
		{
			"bufferView":13,
			"componentType":5126,
			"count":3001,
			"type":"VEC3"
		},
		{
			"bufferView":14,
			"componentType":5126,
			"count":3001,
			"type":"VEC2"
		},
		{
			"bufferView":15,
			"componentType":5123,
			"count":13056,
			"type":"SCALAR"
		},
		{
			"bufferView":16,
			"componentType":5126,
			"count":2126,
			"max":[
				0.9976869225502014,
				0.9977023005485535,
				0.002579494845122099
			],
			"min":[
				-0.9976862668991089,
				-0.9462074637413025,
				-1
			],
			"type":"VEC3"
		},
		{
			"bufferView":17,
			"componentType":5126,
			"count":2126,
			"type":"VEC3"
		},
		{
			"bufferView":18,
			"componentType":5126,
			"count":2126,
			"type":"VEC2"
		},
		{
			"bufferView":19,
			"componentType":5123,
			"count":12420,
			"type":"SCALAR"
		},
		{
			"bufferView":20,
			"componentType":5126,
			"count":1940,
			"max":[
				1.0404504537582397,
				1.0299862623214722,
				-0.07464402914047241
			],
			"min":[
				-1.040449857711792,
				-0.9612584710121155,
				-1.0501646995544434
			],
			"type":"VEC3"
		},
		{
			"bufferView":21,
			"componentType":5126,
			"count":1940,
			"type":"VEC3"
		},
		{
			"bufferView":22,
			"componentType":5126,
			"count":1940,
			"type":"VEC2"
		},
		{
			"bufferView":23,
			"componentType":5123,
			"count":11388,
			"type":"SCALAR"
		},
		{
			"bufferView":24,
			"componentType":5126,
			"count":2550,
			"max":[
				0.9845130443572998,
				0.978654682636261,
				0.9872307181358337
			],
			"min":[
				-0.9845125675201416,
				-0.9205318689346313,
				0.06895691156387329
			],
			"type":"VEC3"
		},
		{
			"bufferView":25,
			"componentType":5126,
			"count":2550,
			"type":"VEC3"
		},
		{
			"bufferView":26,
			"componentType":5126,
			"count":2550,
			"type":"VEC2"
		},
		{
			"bufferView":27,
			"componentType":5123,
			"count":13044,
			"type":"SCALAR"
		},
		{
			"bufferView":28,
			"componentType":5126,
			"count":60,
			"max":[
				2.5
			],
			"min":[
				0.041666666666666664
			],
			"type":"SCALAR"
		},
		{
			"bufferView":29,
			"componentType":5126,
			"count":60,
			"type":"VEC3"
		},
		{
			"bufferView":30,
			"componentType":5126,
			"count":60,
			"type":"VEC4"
		},
		{
			"bufferView":31,
			"componentType":5126,
			"count":2,
			"max":[
				2.5
			],
			"min":[
				0.041666666666666664
			],
			"type":"SCALAR"
		},
		{
			"bufferView":32,
			"componentType":5126,
			"count":2,
			"type":"VEC3"
		}
	],
	"bufferViews":[
		{
			"buffer":0,
			"byteLength":101400,
			"byteOffset":0,
			"target":34962
		},
		{
			"buffer":0,
			"byteLength":101400,
			"byteOffset":101400,
			"target":34962
		},
		{
			"buffer":0,
			"byteLength":67600,
			"byteOffset":202800,
			"target":34962
		},
		{
			"buffer":0,
			"byteLength":101376,
			"byteOffset":270400,
			"target":34963
		},
		{
			"buffer":0,
			"byteLength":22656,
			"byteOffset":371776,
			"target":34962
		},
		{
			"buffer":0,
			"byteLength":22656,
			"byteOffset":394432,
			"target":34962
		},
		{
			"buffer":0,
			"byteLength":15104,
			"byteOffset":417088,
			"target":34962
		},
		{
			"buffer":0,
			"byteLength":15360,
			"byteOffset":432192,
			"target":34963
		},
		{
			"buffer":0,
			"byteLength":26064,
			"byteOffset":447552,
			"target":34962
		},
		{
			"buffer":0,
			"byteLength":26064,
			"byteOffset":473616,
			"target":34962
		},
		{
			"buffer":0,
			"byteLength":17376,
			"byteOffset":499680,
			"target":34962
		},
		{
			"buffer":0,
			"byteLength":24840,
			"byteOffset":517056,
			"target":34963
		},
		{
			"buffer":0,
			"byteLength":36012,
			"byteOffset":541896,
			"target":34962
		},
		{
			"buffer":0,
			"byteLength":36012,
			"byteOffset":577908,
			"target":34962
		},
		{
			"buffer":0,
			"byteLength":24008,
			"byteOffset":613920,
			"target":34962
		},
		{
			"buffer":0,
			"byteLength":26112,
			"byteOffset":637928,
			"target":34963
		},
		{
			"buffer":0,
			"byteLength":25512,
			"byteOffset":664040,
			"target":34962
		},
		{
			"buffer":0,
			"byteLength":25512,
			"byteOffset":689552,
			"target":34962
		},
		{
			"buffer":0,
			"byteLength":17008,
			"byteOffset":715064,
			"target":34962
		},
		{
			"buffer":0,
			"byteLength":24840,
			"byteOffset":732072,
			"target":34963
		},
		{
			"buffer":0,
			"byteLength":23280,
			"byteOffset":756912,
			"target":34962
		},
		{
			"buffer":0,
			"byteLength":23280,
			"byteOffset":780192,
			"target":34962
		},
		{
			"buffer":0,
			"byteLength":15520,
			"byteOffset":803472,
			"target":34962
		},
		{
			"buffer":0,
			"byteLength":22776,
			"byteOffset":818992,
			"target":34963
		},
		{
			"buffer":0,
			"byteLength":30600,
			"byteOffset":841768,
			"target":34962
		},
		{
			"buffer":0,
			"byteLength":30600,
			"byteOffset":872368,
			"target":34962
		},
		{
			"buffer":0,
			"byteLength":20400,
			"byteOffset":902968,
			"target":34962
		},
		{
			"buffer":0,
			"byteLength":26088,
			"byteOffset":923368,
			"target":34963
		},
		{
			"buffer":0,
			"byteLength":240,
			"byteOffset":949456
		},
		{
			"buffer":0,
			"byteLength":720,
			"byteOffset":949696
		},
		{
			"buffer":0,
			"byteLength":960,
			"byteOffset":950416
		},
		{
			"buffer":0,
			"byteLength":8,
			"byteOffset":951376
		},
		{
			"buffer":0,
			"byteLength":24,
			"byteOffset":951384
		}
	],
	"samplers":[
		{
			"magFilter":9729,
			"minFilter":9987
		},
		{
			"magFilter":9729,
			"minFilter":9987,
			"wrapS":33648,
			"wrapT":33648
		}
	],
	"buffers":[
		{
			"byteLength":951408,
			"uri":"pokeball.bin"
		}
	]
}
