{
	"asset":{
		"generator":"Khronos glTF Blender I/O v3.6.27",
		"version":"2.0"
	},
	"extensionsUsed":[
		"KHR_materials_transmission",
		"KHR_materials_emissive_strength",
		"KHR_materials_ior"
	],
	"scene":0,
	"scenes":[
		{
			"name":"Scene",
			"nodes":[
				3
			]
		}
	],
	"nodes":[
		{
			"mesh":0,
			"name":"Sphere.001",
			"scale":[
				0.9522314667701721,
				0.9522314667701721,
				0.9522314667701721
			]
		},
		{
			"mesh":1,
			"name":"Sphere.002",
			"scale":[
				0.9522314667701721,
				0.9522314667701721,
				0.9522314667701721
			],
			"translation":[
				0,
				0.003033159766346216,
				0
			]
		},
		{
			"mesh":2,
			"name":"Sphere.004",
			"scale":[
				0.9522314667701721,
				0.9522314667701721,
				0.9522314667701721
			]
		},
		{
			"children":[
				0,
				1,
				2
			],
			"mesh":3,
			"name":"Sphere",
			"rotation":[
				0.7071068286895752,
				0,
				0,
				0.7071068286895752
			],
			"translation":[
				0,
				0.9920641183853149,
				0
			]
		}
	],
	"animations":[
		{
			"channels":[
				{
					"sampler":0,
					"target":{
						"node":2,
						"path":"translation"
					}
				},
				{
					"sampler":1,
					"target":{
						"node":2,
						"path":"rotation"
					}
				},
				{
					"sampler":2,
					"target":{
						"node":2,
						"path":"scale"
					}
				}
			],
			"name":"Sphere.004Action.001",
			"samplers":[
				{
					"input":24,
					"interpolation":"LINEAR",
					"output":25
				},
				{
					"input":24,
					"interpolation":"LINEAR",
					"output":26
				},
				{
					"input":27,
					"interpolation":"STEP",
					"output":28
				}
			]
		}
	],
	"materials":[
		{
			"doubleSided":true,
			"name":"Black",
			"pbrMetallicRoughness":{
				"baseColorFactor":[
					0.003642119700089097,
					0.003642119700089097,
					0.003642119700089097,
					1
				],
				"metallicFactor":0,
				"roughnessFactor":0.10000000149011612
			}
		},
		{
			"doubleSided":true,
			"name":"Metal",
			"pbrMetallicRoughness":{
				"baseColorFactor":[
					1,
					0.9786862134933472,
					0.9163454174995422,
					1
				],
				"roughnessFactor":0.5
			}
		},
		{
			"doubleSided":true,
			"emissiveFactor":[
				0.006650626805603598,
				1,
				0.014523022012005431
			],
			"extensions":{
				"KHR_materials_transmission":{
					"transmissionFactor":0.5039370059967041
				},
				"KHR_materials_emissive_strength":{
					"emissiveStrength":1.8227394819259644
				},
				"KHR_materials_ior":{
					"ior":1.4500000476837158
				}
			},
			"name":"Light",
			"pbrMetallicRoughness":{
				"baseColorFactor":[
					0.800000011920929,
					0.800000011920929,
					0.800000011920929,
					1
				],
				"metallicFactor":0,
				"roughnessFactor":0.5
			}
		},
		{
			"doubleSided":true,
			"name":"Red",
			"pbrMetallicRoughness":{
				"baseColorFactor":[
					0.8000000715255737,
					0.007877988740801811,
					0,
					1
				],
				"metallicFactor":0,
				"roughnessFactor":0.30000001192092896
			}
		},
		{
			"doubleSided":true,
			"name":"Blue",
			"pbrMetallicRoughness":{
				"baseColorFactor":[
					0.800000011920929,
					0.800000011920929,
					0.800000011920929,
					1
				],
				"metallicFactor":0,
				"roughnessFactor":0.10000000149011612
			}
		}
	],
	"meshes":[
		{
			"name":"Sphere.005",
			"primitives":[
				{
					"attributes":{
						"POSITION":0,
						"NORMAL":1,
						"TEXCOORD_0":2
					},
					"indices":3,
					"material":0
				}
			]
		},
		{
			"name":"Sphere.006",
			"primitives":[
				{
					"attributes":{
						"POSITION":4,
						"NORMAL":5,
						"TEXCOORD_0":6
					},
					"indices":7,
					"material":1
				},
				{
					"attributes":{
						"POSITION":8,
						"NORMAL":9,
						"TEXCOORD_0":10
					},
					"indices":11,
					"material":2
				}
			]
		},
		{
			"name":"Sphere.002",
			"primitives":[
				{
					"attributes":{
						"POSITION":12,
						"NORMAL":13,
						"TEXCOORD_0":14
					},
					"indices":15,
					"material":0
				},
				{
					"attributes":{
						"POSITION":16,
						"NORMAL":17,
						"TEXCOORD_0":18
					},
					"indices":19,
					"material":3
				}
			]
		},
		{
			"name":"Sphere.004",
			"primitives":[
				{
					"attributes":{
						"POSITION":20,
						"NORMAL":21,
						"TEXCOORD_0":22
					},
					"indices":23,
					"material":4
				}
			]
		}
	],
	"accessors":[
		{
			"bufferView":0,
			"componentType":5126,
			"count":271,
			"max":[
				0.9999997019767761,
				1,
				0.9999993443489075
			],
			"min":[
				-0.9999990463256836,
				-0.9523323774337769,
				-4.470348358154297e-07
			],
			"type":"VEC3"
		},
		{
			"bufferView":1,
			"componentType":5126,
			"count":271,
			"type":"VEC3"
		},
		{
			"bufferView":2,
			"componentType":5126,
			"count":271,
			"type":"VEC2"
		},
		{
			"bufferView":3,
			"componentType":5123,
			"count":1392,
			"type":"SCALAR"
		},
		{
			"bufferView":4,
			"componentType":5126,
			"count":135,
			"max":[
				0.171502485871315,
				-0.9807852506637573,
				0.17150241136550903
			],
			"min":[
				-0.17150236666202545,
				-1.0608479976654053,
				-0.17150232195854187
			],
			"type":"VEC3"
		},
		{
			"bufferView":5,
			"componentType":5126,
			"count":135,
			"type":"VEC3"
		},
		{
			"bufferView":6,
			"componentType":5126,
			"count":135,
			"type":"VEC2"
		},
		{
			"bufferView":7,
			"componentType":5123,
			"count":756,
			"type":"SCALAR"
		},
		{
			"bufferView":8,
			"componentType":5126,
			"count":198,
			"max":[
				0.2888868451118469,
				-0.9523323774337769,
				0.28888675570487976
			],
			"min":[
				-0.288886696100235,
				-1.0052616596221924,
				-0.2888866662979126
			],
			"type":"VEC3"
		},
		{
			"bufferView":9,
			"componentType":5126,
			"count":198,
			"type":"VEC3"
		},
		{
			"bufferView":10,
			"componentType":5126,
			"count":198,
			"type":"VEC2"
		},
		{
			"bufferView":11,
			"componentType":5123,
			"count":1152,
			"type":"SCALAR"
		},
		{
			"bufferView":12,
			"componentType":5126,
			"count":271,
			"max":[
				0.9999997019767761,
				1,
				1.6391277313232422e-07
			],
			"min":[
				-0.9999990463256836,
				-0.9523323774337769,
				-1
			],
			"type":"VEC3"
		},
		{
			"bufferView":13,
			"componentType":5126,
			"count":271,
			"type":"VEC3"
		},
		{
			"bufferView":14,
			"componentType":5126,
			"count":271,
			"type":"VEC2"
		},
		{
			"bufferView":15,
			"componentType":5123,
			"count":1392,
			"type":"SCALAR"
		},
		{
			"bufferView":16,
			"componentType":5126,
			"count":230,
			"max":[
				1.0424425601959229,
				1.0299862623214722,
				-0.07840289920568466
			],
			"min":[
				-1.042441725730896,
				-0.9702255725860596,
				-1.0501646995544434
			],
			"type":"VEC3"
		},
		{
			"bufferView":17,
			"componentType":5126,
			"count":230,
			"type":"VEC3"
		},
		{
			"bufferView":18,
			"componentType":5126,
			"count":230,
			"type":"VEC2"
		},
		{
			"bufferView":19,
			"componentType":5123,
			"count":1251,
			"type":"SCALAR"
		},
		{
			"bufferView":20,
			"componentType":5126,
			"count":230,
			"max":[
				0.9926465153694153,
				0.9807852506637573,
				0.9999993443489075
			],
			"min":[
				-0.9926458597183228,
				-0.9238795042037964,
				0.07465766370296478
			],
			"type":"VEC3"
		},
		{
			"bufferView":21,
			"componentType":5126,
			"count":230,
			"type":"VEC3"
		},
		{
			"bufferView":22,
			"componentType":5126,
			"count":230,
			"type":"VEC2"
		},
		{
			"bufferView":23,
			"componentType":5123,
			"count":1251,
			"type":"SCALAR"
		},
		{
			"bufferView":24,
			"componentType":5126,
			"count":60,
			"max":[
				2.5
			],
			"min":[
				0.041666666666666664
			],
			"type":"SCALAR"
		},
		{
			"bufferView":25,
			"componentType":5126,
			"count":60,
			"type":"VEC3"
		},
		{
			"bufferView":26,
			"componentType":5126,
			"count":60,
			"type":"VEC4"
		},
		{
			"bufferView":27,
			"componentType":5126,
			"count":2,
			"max":[
				2.5
			],
			"min":[
				0.041666666666666664
			],
			"type":"SCALAR"
		},
		{
			"bufferView":28,
			"componentType":5126,
			"count":2,
			"type":"VEC3"
		}
	],
	"bufferViews":[
		{
			"buffer":0,
			"byteLength":3252,
			"byteOffset":0,
			"target":34962
		},
		{
			"buffer":0,
			"byteLength":3252,
			"byteOffset":3252,
			"target":34962
		},
		{
			"buffer":0,
			"byteLength":2168,
			"byteOffset":6504,
			"target":34962
		},
		{
			"buffer":0,
			"byteLength":2784,
			"byteOffset":8672,
			"target":34963
		},
		{
			"buffer":0,
			"byteLength":1620,
			"byteOffset":11456,
			"target":34962
		},
		{
			"buffer":0,
			"byteLength":1620,
			"byteOffset":13076,
			"target":34962
		},
		{
			"buffer":0,
			"byteLength":1080,
			"byteOffset":14696,
			"target":34962
		},
		{
			"buffer":0,
			"byteLength":1512,
			"byteOffset":15776,
			"target":34963
		},
		{
			"buffer":0,
			"byteLength":2376,
			"byteOffset":17288,
			"target":34962
		},
		{
			"buffer":0,
			"byteLength":2376,
			"byteOffset":19664,
			"target":34962
		},
		{
			"buffer":0,
			"byteLength":1584,
			"byteOffset":22040,
			"target":34962
		},
		{
			"buffer":0,
			"byteLength":2304,
			"byteOffset":23624,
			"target":34963
		},
		{
			"buffer":0,
			"byteLength":3252,
			"byteOffset":25928,
			"target":34962
		},
		{
			"buffer":0,
			"byteLength":3252,
			"byteOffset":29180,
			"target":34962
		},
		{
			"buffer":0,
			"byteLength":2168,
			"byteOffset":32432,
			"target":34962
		},
		{
			"buffer":0,
			"byteLength":2784,
			"byteOffset":34600,
			"target":34963
		},
		{
			"buffer":0,
			"byteLength":2760,
			"byteOffset":37384,
			"target":34962
		},
		{
			"buffer":0,
			"byteLength":2760,
			"byteOffset":40144,
			"target":34962
		},
		{
			"buffer":0,
			"byteLength":1840,
			"byteOffset":42904,
			"target":34962
		},
		{
			"buffer":0,
			"byteLength":2502,
			"byteOffset":44744,
			"target":34963
		},
		{
			"buffer":0,
			"byteLength":2760,
			"byteOffset":47248,
			"target":34962
		},
		{
			"buffer":0,
			"byteLength":2760,
			"byteOffset":50008,
			"target":34962
		},
		{
			"buffer":0,
			"byteLength":1840,
			"byteOffset":52768,
			"target":34962
		},
		{
			"buffer":0,
			"byteLength":2502,
			"byteOffset":54608,
			"target":34963
		},
		{
			"buffer":0,
			"byteLength":240,
			"byteOffset":57112
		},
		{
			"buffer":0,
			"byteLength":720,
			"byteOffset":57352
		},
		{
			"buffer":0,
			"byteLength":960,
			"byteOffset":58072
		},
		{
			"buffer":0,
			"byteLength":8,
			"byteOffset":59032
		},
		{
			"buffer":0,
			"byteLength":24,
			"byteOffset":59040
		}
	],
	"buffers":[
		{
			"byteLength":59064,
			"uri":"pokeball.bin"
		}
	]
}
